<?xml version="1.0" encoding="UTF-8"?>
<svg id="Capa_1" data-name="Capa 1" xmlns="http://www.w3.org/2000/svg" viewBox="0 0 3016.54 2651.26">
  <defs>
    <style>
      .cls-1 {
        fill: #263677;
        stroke-width: 0px;
      }
    </style>
  </defs>
  <g id="CUSTOM-Group">
    <path class="cls-1" d="m2512.18,1793.39l-291.02,291.01-114.26-114.26c-34.51-34.51-90.47-34.51-124.98,0-34.51,34.51-34.51,90.47,0,124.98l176.75,176.75c17.26,17.26,39.88,25.88,62.49,25.88s45.24-8.63,62.49-25.89l353.5-353.5c34.51-34.51,34.51-90.47,0-124.98-34.51-34.51-90.47-34.51-124.97,0h0Z"/>
    <path class="cls-1" d="m2490.36,1260.73c117.29-169.27,172.69-333.51,172.69-508.2C2663.04,336.17,2364.66,0,1956.04,0c-276.96,0-488.35,161.89-623.54,399.8C1198.77,160.19,988.36,0,712.89,0,299.82,0,0,341.02,0,752.53c0,485.27,447.87,833.13,942.54,1245.09,105.73,88.04,215.05,179.09,331.46,278.86,16.55,14.19,37.03,21.28,57.52,21.28s40.97-7.09,57.52-21.28c76.35-65.44,152.34-127.57,225.82-187.65.74-.6,1.44-1.18,2.18-1.78,66.22,321.63,351.56,564.21,692.5,564.21,389.84,0,707-317.16,707-707,0-327.36-223.66-603.43-526.19-683.53h0Zm-883.55,606.03c-88.85,73.56-179.38,146.17-275.1,226.59-96.07-81.66-187.31-157.66-276.04-231.55C526.4,1421.04,176.75,1129.87,176.75,752.53c0-328.24,230.5-575.78,536.14-575.78,274.41,0,468.38,239.62,533.53,465.7,10.64,38,45.18,64.34,84.65,64.55h.46c39.27,0,73.86-25.93,84.85-63.67,1.35-4.67,140.44-466.58,539.66-466.58,302.3,0,530.25,247.53,530.25,575.78,0,164.46-61.83,315.39-199.54,485.13-353.34,11.25-642.03,283-679.94,629.09Zm702.74,607.76c-292.38,0-530.25-237.87-530.25-530.25s237.87-530.25,530.25-530.25,530.25,237.87,530.25,530.25-237.87,530.25-530.25,530.25Z"/>
    <path class="cls-1" d="m1956.04,1148.88c0-48.81-39.57-88.38-88.37-88.38h-359.39c-33.48,0-64.07,18.91-79.05,48.85l-69.91,139.82-118.81-475.23c-8.96-35.88-39.33-62.37-76.1-66.41-36.74-4.03-72.15,15.25-88.69,48.33l-152.32,304.64h-122.13c-48.81,0-88.37,39.57-88.37,88.38s39.57,88.37,88.37,88.37h176.75c33.48,0,64.07-18.91,79.05-48.85l69.91-139.82,118.81,475.24c9.86,39.42,45.26,66.94,85.77,66.94,33.17,0,63.93-18.69,79.01-48.85l152.32-304.65h304.77c48.81,0,88.37-39.57,88.37-88.37h0Z"/>
  </g>
</svg>